<svg width="22" height="16" viewBox="0 0 22 16" fill="none" xmlns="http://www.w3.org/2000/svg">
<path d="M1.26387 8.7132C1.12769 8.4975 1.05959 8.3897 1.02147 8.2234C0.992842 8.0985 0.992842 7.9015 1.02147 7.7766C1.05959 7.6103 1.12769 7.5025 1.26387 7.2868C2.38928 5.50484 5.73915 1 10.8442 1C15.9492 1 19.2991 5.50484 20.4245 7.2868C20.5607 7.5025 20.6288 7.6103 20.6669 7.7766C20.6955 7.9015 20.6955 8.0985 20.6669 8.2234C20.6288 8.3897 20.5607 8.4975 20.4245 8.7132C19.2991 10.4952 15.9492 15 10.8442 15C5.73915 15 2.38928 10.4952 1.26387 8.7132Z" stroke="#A4A4A4" stroke-width="2" stroke-linecap="round" stroke-linejoin="round"/>
</svg>
