<svg width="32" height="28" viewBox="0 0 32 28" fill="none" xmlns="http://www.w3.org/2000/svg">
<path d="M22.875 16.9557V12.5725C22.875 12.3107 22.875 12.1799 22.8352 12.0643C22.7999 11.9622 22.7424 11.8691 22.6667 11.7918C22.5813 11.7045 22.4642 11.646 22.2301 11.5291L15.5833 8.2056M3.91667 9.66393V19.5903C3.91667 20.1326 3.91667 20.4037 4.00128 20.6413C4.07608 20.8512 4.19798 21.0412 4.35764 21.1966C4.53824 21.3724 4.78477 21.4854 5.2778 21.7114L14.6112 25.9892C14.9688 26.1531 15.1476 26.235 15.3338 26.2674C15.4989 26.296 15.6678 26.296 15.8329 26.2674C16.0191 26.235 16.1979 26.1531 16.5555 25.9892L25.8888 21.7114C26.3819 21.4854 26.6285 21.3724 26.809 21.1966C26.9687 21.0412 27.0906 20.8512 27.1654 20.6413C27.25 20.4037 27.25 20.1326 27.25 19.5903V9.66393M1 8.2056L15.0615 1.17481C15.2529 1.07916 15.3485 1.03133 15.4489 1.01251C15.5377 0.995829 15.629 0.995829 15.7178 1.01251C15.8181 1.03133 15.9138 1.07916 16.1051 1.17481L30.1667 8.2056L16.1051 15.2364C15.9138 15.3321 15.8181 15.3799 15.7178 15.3987C15.629 15.4154 15.5377 15.4154 15.4489 15.3987C15.3485 15.3799 15.2529 15.3321 15.0615 15.2364L1 8.2056Z" stroke="#0095FF" stroke-width="2" stroke-linecap="round" stroke-linejoin="round"/>
</svg>
